<svg xmlns="http://www.w3.org/2000/svg" width="1200" height="630" viewBox="0 0 1200 630">
  <defs>
    <linearGradient id="bg" x1="0" y1="0" x2="1" y2="1">
      <stop offset="0%" stop-color="#FAFAF7" />
      <stop offset="100%" stop-color="#E5E7EB" />
    </linearGradient>
    <linearGradient id="accent" x1="0" y1="0" x2="1" y2="1">
      <stop offset="0%" stop-color="#6366F1" />
      <stop offset="100%" stop-color="#8B5CF6" />
    </linearGradient>
  </defs>
  <rect width="1200" height="630" fill="url(#bg)" />
  <g transform="translate(140 110)">
    <rect x="0" y="0" width="260" height="410" rx="40" fill="#1f2937" />
    <rect x="24" y="40" width="212" height="200" rx="16" fill="#0f172a" />
    <rect x="36" y="60" width="120" height="18" rx="4" fill="#10b981" />
    <rect x="36" y="90" width="180" height="14" rx="4" fill="#34d399" opacity="0.85" />
    <rect x="36" y="114" width="150" height="14" rx="4" fill="#6ee7b7" opacity="0.85" />
    <rect x="36" y="138" width="100" height="14" rx="4" fill="#34d399" opacity="0.85" />
    <rect x="36" y="162" width="160" height="14" rx="4" fill="#10b981" opacity="0.9" />
    <rect x="80" y="260" width="100" height="100" rx="50" fill="url(#accent)" />
  </g>
  <text x="460" y="210" font-family="Inter, Poppins, sans-serif" font-size="68" font-weight="700" fill="#1f2937">Ayaz Qureshi</text>
  <text x="460" y="280" font-family="Inter, Poppins, sans-serif" font-size="34" font-weight="600" fill="#374151">Android & Flutter Developer</text>
  <text x="460" y="340" font-family="Inter, Poppins, sans-serif" font-size="26" font-weight="400" fill="#1f2937">Crafting scalable, elegant mobile experiences.</text>
  <rect x="460" y="380" width="400" height="4" fill="#6366F1" />
  <text x="460" y="450" font-family="Inter, Poppins, sans-serif" font-size="22" fill="#374151">insideandroid • medium • linkedin</text>
</svg>

